<svg width="24" height="24" viewBox="0 0 24 24" fill="none" xmlns="http://www.w3.org/2000/svg">
<path d="M20.4774 17.6714L20.4765 17.6713C20.3335 17.6609 20.2294 17.5327 20.2387 17.4065L19.74 17.37L20.2383 17.4115C20.25 17.2706 20.25 17.1231 20.25 17.0085V17V7C20.25 6.09888 20.2084 5.34503 20.0787 4.72714C19.9479 4.10372 19.72 3.58249 19.3214 3.18306C18.9227 2.78357 18.4018 2.55456 17.7776 2.42281C17.1591 2.29224 16.4038 2.25 15.5 2.25H8.5C7.59618 2.25 6.84091 2.29224 6.22235 2.42281C5.59822 2.55456 5.07727 2.78357 4.67859 3.18306C4.27996 3.58249 4.05213 4.10372 3.92129 4.72714C3.7916 5.34503 3.75 6.09888 3.75 7V18C3.75 18.1339 3.63386 18.25 3.5 18.25C3.36614 18.25 3.25 18.1339 3.25 18V7C3.25 4.81222 3.59065 3.55896 4.3248 2.8248C5.05896 2.09065 6.31222 1.75 8.5 1.75H15.5C17.6878 1.75 18.941 2.09065 19.6752 2.8248C20.4094 3.55896 20.75 4.81222 20.75 7V17C20.75 17.1608 20.7499 17.2947 20.7412 17.4354C20.7299 17.574 20.5959 17.6803 20.4774 17.6714Z" fill="#292D32" stroke="#1F2937"/>
<path d="M20.25 15.75V15.25H19.75H6.35C4.91386 15.25 3.75 16.4139 3.75 17.85V18.5C3.75 20.2961 5.20386 21.75 7 21.75H17C18.7961 21.75 20.25 20.2961 20.25 18.5V15.75ZM17 22.25H7C4.93614 22.25 3.25 20.5639 3.25 18.5V17.85C3.25 16.137 4.64524 14.75 6.35 14.75H20.5C20.6339 14.75 20.75 14.8661 20.75 15V18.5C20.75 20.5639 19.0639 22.25 17 22.25Z" fill="#292D32" stroke="#1F2937"/>
<path d="M16 7.25H8C7.86614 7.25 7.75 7.13386 7.75 7C7.75 6.86614 7.86614 6.75 8 6.75H16C16.1339 6.75 16.25 6.86614 16.25 7C16.25 7.13386 16.1339 7.25 16 7.25Z" fill="#292D32" stroke="#1F2937"/>
<path d="M13 10.75H8C7.86614 10.75 7.75 10.6339 7.75 10.5C7.75 10.3661 7.86614 10.25 8 10.25H13C13.1339 10.25 13.25 10.3661 13.25 10.5C13.25 10.6339 13.1339 10.75 13 10.75Z" fill="#292D32" stroke="#1F2937"/>
</svg>
