<svg width="16" height="16" viewBox="0 0 16 16" fill="none" xmlns="http://www.w3.org/2000/svg">
<path d="M11.7445 7.7925C11.6728 8.83459 11.0786 9.56619 10.3925 9.87625C9.66502 10.2049 8.92972 10.0236 8.5626 9.425C7.96155 8.44481 8.37456 7.76263 8.77395 7.10288C9.2268 6.35478 9.74013 5.50684 9.24779 3.85791C8.85912 2.55613 8.09793 1.46322 6.98533 0.609531C6.6385 0.343437 6.30956 0.143312 6.04261 0C6.41545 0.907562 6.90031 2.59641 6.39384 4.46228C6.07262 5.64581 5.22368 6.54269 4.40267 7.41003C3.32133 8.55247 2.20312 9.73378 2.20312 11.6213C2.20312 13.0855 2.71327 14.2519 3.71935 15.0882C4.48122 15.7214 5.25865 15.968 5.2664 15.97H7.12148L7.08265 15.9692C7.0755 15.9637 6.36876 15.4058 6.35658 14.766C6.35091 14.467 6.50784 14.1802 6.823 13.9135C7.2964 13.5129 7.55658 13.0816 7.61848 12.5949C7.65633 12.2973 7.61806 11.9826 7.50175 11.643C8.28692 11.9723 9.09911 12.6913 9.37435 13.5838C9.62153 14.3853 9.39287 15.2097 8.71374 15.97H10.7439C12.0738 14.9281 12.8225 13.6796 12.9692 12.2591C13.1563 10.4479 12.3283 8.742 11.7445 7.7925Z" fill="#0C0B0B"/>
<path d="M7.12189 15.9697L8.6874 15.9998C8.69649 15.9898 8.70519 15.9797 8.71412 15.9697H7.12189Z" fill="#0C0B0B"/>
</svg>
