<svg width="47" height="40" viewBox="0 0 47 40" fill="none" xmlns="http://www.w3.org/2000/svg">
<path d="M40.123 14.5625C35.8456 12.8633 30.1007 11.7634 23.9651 11.463C23.0202 11.4099 22.0738 11.3839 21.1272 11.3849C25.6632 6.21316 30.5296 2.74067 33.7348 2.62821C34.3635 2.60627 34.8981 2.72833 35.3271 2.98478C36.7122 3.82822 37.0941 6.22139 36.3905 9.54988C36.3142 10.0066 36.627 10.4564 37.0941 10.5428C37.2102 10.5652 37.3299 10.566 37.4462 10.545C37.5626 10.5241 37.6734 10.4819 37.7722 10.4209C37.8711 10.3598 37.956 10.2811 38.0221 10.1893C38.0883 10.0975 38.1343 9.99437 38.1576 9.88588C39.0375 5.71533 38.3868 2.84901 36.3142 1.58591C35.5724 1.12922 34.669 0.912536 33.6657 0.949565C29.6571 1.09219 23.996 5.15715 18.8005 11.415C16.6821 11.4661 14.5692 11.6402 12.4739 11.9362C11.2107 6.63556 11.7086 2.8353 13.6373 1.92055C13.9032 1.78477 14.1955 1.72169 14.5318 1.69151C15.9009 1.59277 17.7825 2.41426 19.8419 4.01337C20.2238 4.30548 20.7894 4.26983 21.1037 3.90502C21.1798 3.82103 21.2373 3.72377 21.2729 3.61886C21.3085 3.51396 21.3214 3.40351 21.3108 3.29392C21.3003 3.18433 21.2666 3.07778 21.2116 2.98045C21.1566 2.88313 21.0815 2.79696 20.9906 2.72695C18.5184 0.819278 16.2475 -0.116045 14.3864 0.0114986C13.8393 0.0515113 13.3051 0.187366 12.8118 0.41196C10.4777 1.52557 9.54493 4.66891 10.1266 9.26187C10.2632 10.2109 10.4395 11.2038 10.701 12.2187C4.27305 13.4187 0.182168 15.827 0.00589974 18.8469C-0.117488 20.9904 1.6966 23.0257 5.25281 24.74C5.35768 24.7911 5.47237 24.8222 5.59023 24.8315C5.70809 24.8409 5.82677 24.8283 5.93938 24.7945C6.05198 24.7607 6.15627 24.7063 6.24619 24.6346C6.33611 24.5628 6.40987 24.4751 6.46318 24.3765C6.518 24.2785 6.55134 24.1712 6.56126 24.061C6.57119 23.9508 6.55749 23.8399 6.52098 23.7347C6.48447 23.6295 6.42587 23.5321 6.34861 23.4483C6.27134 23.3645 6.17697 23.2959 6.07099 23.2465C3.23307 21.8819 1.70395 20.3459 1.79502 18.9401C1.8949 16.9611 5.2675 14.9314 11.1211 13.8548C11.6853 15.7744 12.372 17.6608 13.1775 19.5038C11.1813 22.9543 9.73442 26.3555 8.9941 29.3768C7.89095 33.8847 8.48145 37.0994 10.676 38.427C11.3796 38.8548 12.1978 39.0702 13.1158 39.0702C14.9446 39.0702 17.1626 38.2267 19.673 36.5563C19.769 36.4924 19.8505 36.4114 19.913 36.3181C19.9754 36.2247 20.0176 36.1208 20.037 36.0122C20.0564 35.9036 20.0528 35.7926 20.0262 35.6853C19.9997 35.5781 19.9508 35.4768 19.8823 35.3872C19.8138 35.2976 19.7271 35.2214 19.6271 35.1631C19.5271 35.1048 19.4158 35.0654 19.2995 35.0473C19.1833 35.0292 19.0643 35.0326 18.9494 35.0573C18.8346 35.0821 18.726 35.1278 18.6301 35.1917C15.6086 37.2119 13.0615 37.8839 11.6543 37.0253C10.1692 36.1188 9.84018 33.4761 10.7597 29.7553C11.3781 27.2195 12.5341 24.3971 14.1029 21.4896C14.4922 22.2906 14.9064 23.0901 15.3353 23.891C18.1277 29.0051 21.5473 33.4473 24.9522 36.4137C27.6682 38.7712 30.1933 40 32.2659 40C32.9548 40 33.5982 39.8629 34.1798 39.5927C36.4199 38.5216 37.3938 35.5497 36.9179 31.2283C36.4831 27.1784 34.8453 22.2481 32.3055 17.3273C32.2018 17.1287 32.0186 16.9762 31.7955 16.9025C31.5723 16.8289 31.3272 16.8401 31.1128 16.9337C31.0055 16.9811 30.9093 17.0477 30.8297 17.1298C30.75 17.2119 30.6885 17.3079 30.6487 17.4122C30.6089 17.5166 30.5914 17.6272 30.5975 17.7379C30.6035 17.8485 30.6329 17.9569 30.6839 18.0569C35.9469 28.2989 36.323 36.6852 33.369 38.0923C30.2476 39.5845 22.7415 33.7846 16.935 23.134C16.2964 21.98 15.7069 20.8028 15.1679 19.6053C15.8333 18.4985 16.5369 17.3767 17.3183 16.2631C18.0786 15.1748 18.8766 14.11 19.7112 13.0704H20.4853C21.5414 13.0704 22.6886 13.0923 23.8814 13.1568C36.6652 13.7863 45.3729 17.8416 45.1966 21.0851C45.1202 22.4839 43.3825 23.8993 40.4447 24.9635C40.2317 25.05 40.0628 25.2101 39.9734 25.4102C39.884 25.6104 39.881 25.8351 39.9652 26.0373C40.0493 26.2394 40.214 26.4033 40.4247 26.4946C40.6354 26.5859 40.8758 26.5975 41.0954 26.527C44.8279 25.1775 46.8785 23.3192 46.9945 21.1715C47.1311 18.7413 44.7075 16.3989 40.1392 14.5844V14.5694L40.123 14.5625ZM15.8024 15.3346C15.2847 16.0822 14.7871 16.8418 14.31 17.6126C13.7673 16.2852 13.2952 14.9336 12.8955 13.5627C14.3937 13.3481 15.902 13.2003 17.4153 13.1197C16.857 13.8432 16.3216 14.5818 15.8098 15.3346V15.314L15.8024 15.3346ZM23.4907 17.485C19.9021 17.485 19.9021 22.5141 23.4907 22.5141C27.0865 22.5141 27.0865 17.485 23.4907 17.485Z" fill="#00DA9F"/>
<ellipse cx="24" cy="20" rx="17" ry="16" fill="#00DA9F" fill-opacity="0.15"/>
</svg>
