<svg width="91" height="40" viewBox="0 0 91 40" fill="none" xmlns="http://www.w3.org/2000/svg">
<g filter="url(#filter0_d_300_672)">
<path d="M58.184 11.08C58.68 11.176 59.048 11.344 59.288 11.584C59.544 11.824 59.672 12.104 59.672 12.424C59.672 12.952 59.52 13.336 59.216 13.576C58.928 13.816 58.464 13.912 57.824 13.864C56.384 13.752 55.256 13.68 54.44 13.648C53.64 13.6 52.584 13.568 51.272 13.552C50.68 16.496 50.136 19.456 49.64 22.432C49.464 23.52 49.28 24.784 49.088 26.224C48.896 27.648 48.768 28.8 48.704 29.68C48.672 30.144 48.48 30.504 48.128 30.76C47.776 31 47.352 31.12 46.856 31.12C46.328 31.12 45.92 30.992 45.632 30.736C45.344 30.48 45.2 30.144 45.2 29.728C45.2 29.344 45.256 28.712 45.368 27.832C45.496 26.936 45.64 26 45.8 25.024C45.976 24.048 46.112 23.2 46.208 22.48C46.384 21.264 46.584 20.056 46.808 18.856C47.032 17.656 47.256 16.52 47.48 15.448C47.528 15.208 47.584 14.936 47.648 14.632C47.712 14.312 47.784 13.96 47.864 13.576C46.296 13.624 45.064 13.752 44.168 13.96C43.272 14.168 42.632 14.464 42.248 14.848C41.88 15.216 41.696 15.696 41.696 16.288C41.696 16.832 41.856 17.352 42.176 17.848C42.24 17.96 42.272 18.08 42.272 18.208C42.272 18.512 42.088 18.8 41.72 19.072C41.368 19.328 41 19.456 40.616 19.456C40.344 19.456 40.12 19.376 39.944 19.216C39.624 18.944 39.36 18.56 39.152 18.064C38.944 17.552 38.84 16.976 38.84 16.336C38.84 14.976 39.28 13.888 40.16 13.072C41.056 12.24 42.408 11.632 44.216 11.248C46.04 10.864 48.376 10.672 51.224 10.672C52.984 10.672 54.384 10.704 55.424 10.768C56.48 10.832 57.4 10.936 58.184 11.08ZM66.6901 23.632C66.8981 23.632 67.0581 23.736 67.1701 23.944C67.2821 24.152 67.3381 24.416 67.3381 24.736C67.3381 25.504 67.1061 25.96 66.6421 26.104C65.6821 26.44 64.6261 26.632 63.4741 26.68C63.1701 28.024 62.5701 29.104 61.6741 29.92C60.7781 30.72 59.7621 31.12 58.6261 31.12C57.6661 31.12 56.8421 30.888 56.1541 30.424C55.4821 29.96 54.9701 29.344 54.6181 28.576C54.2661 27.808 54.0901 26.976 54.0901 26.08C54.0901 24.864 54.3221 23.784 54.7861 22.84C55.2501 21.88 55.8901 21.136 56.7061 20.608C57.5221 20.064 58.4261 19.792 59.4181 19.792C60.6341 19.792 61.6101 20.216 62.3461 21.064C63.0981 21.896 63.5381 22.928 63.6661 24.16C64.4181 24.112 65.3141 23.952 66.3541 23.68C66.4821 23.648 66.5941 23.632 66.6901 23.632ZM58.8181 28.576C59.3301 28.576 59.7701 28.368 60.1381 27.952C60.5221 27.536 60.7781 26.936 60.9061 26.152C60.4101 25.816 60.0261 25.376 59.7541 24.832C59.4981 24.288 59.3701 23.712 59.3701 23.104C59.3701 22.848 59.3941 22.592 59.4421 22.336H59.3221C58.6821 22.336 58.1461 22.648 57.7141 23.272C57.2981 23.88 57.0901 24.744 57.0901 25.864C57.0901 26.744 57.2581 27.416 57.5941 27.88C57.9461 28.344 58.3541 28.576 58.8181 28.576ZM77.3116 25.648C77.5196 25.648 77.6796 25.744 77.7916 25.936C77.9196 26.128 77.9836 26.392 77.9836 26.728C77.9836 27.368 77.8316 27.864 77.5276 28.216C76.8396 29.064 76.0876 29.76 75.2716 30.304C74.4556 30.848 73.5196 31.12 72.4636 31.12C69.1996 31.12 67.5676 28.824 67.5676 24.232C67.5676 23.528 67.5916 22.816 67.6396 22.096H66.7036C66.2236 22.096 65.8956 22.008 65.7196 21.832C65.5596 21.656 65.4796 21.376 65.4796 20.992C65.4796 20.096 65.8396 19.648 66.5596 19.648H67.9276C68.1996 17.888 68.6156 16.28 69.1756 14.824C69.7356 13.368 70.4076 12.208 71.1916 11.344C71.9916 10.48 72.8476 10.048 73.7596 10.048C74.4316 10.048 74.9596 10.344 75.3436 10.936C75.7276 11.528 75.9196 12.272 75.9196 13.168C75.9196 15.648 74.8796 17.808 72.7996 19.648H75.4876C75.7436 19.648 75.9276 19.704 76.0396 19.816C76.1516 19.928 76.2076 20.136 76.2076 20.44C76.2076 21.544 75.3036 22.096 73.4956 22.096H70.5676C70.5356 22.896 70.5196 23.52 70.5196 23.968C70.5196 25.632 70.7116 26.8 71.0956 27.472C71.4956 28.144 72.1196 28.48 72.9676 28.48C73.6556 28.48 74.2636 28.272 74.7916 27.856C75.3196 27.44 75.9436 26.816 76.6636 25.984C76.8556 25.76 77.0716 25.648 77.3116 25.648ZM73.1116 12.352C72.8716 12.352 72.5996 12.656 72.2956 13.264C72.0076 13.856 71.7276 14.688 71.4556 15.76C71.1996 16.816 70.9836 17.992 70.8076 19.288C71.7516 18.472 72.4556 17.56 72.9196 16.552C73.3996 15.528 73.6396 14.6 73.6396 13.768C73.6396 12.824 73.4636 12.352 73.1116 12.352ZM85.3415 26.368C85.5495 26.368 85.7095 26.464 85.8215 26.656C85.9495 26.848 86.0135 27.112 86.0135 27.448C86.0135 28.024 85.8775 28.52 85.6055 28.936C85.1575 29.624 84.5655 30.16 83.8295 30.544C83.1095 30.928 82.2455 31.12 81.2375 31.12C79.7015 31.12 78.5095 30.664 77.6615 29.752C76.8135 28.824 76.3895 27.576 76.3895 26.008C76.3895 24.904 76.6215 23.88 77.0855 22.936C77.5495 21.976 78.1895 21.216 79.0055 20.656C79.8375 20.096 80.7735 19.816 81.8135 19.816C82.7415 19.816 83.4855 20.096 84.0455 20.656C84.6055 21.2 84.8855 21.944 84.8855 22.888C84.8855 23.992 84.4855 24.944 83.6855 25.744C82.9015 26.528 81.5575 27.152 79.6535 27.616C80.0375 28.352 80.6855 28.72 81.5975 28.72C82.2535 28.72 82.7895 28.568 83.2055 28.264C83.6375 27.96 84.1335 27.448 84.6935 26.728C84.8855 26.488 85.1015 26.368 85.3415 26.368ZM81.4055 22.168C80.8135 22.168 80.3095 22.512 79.8935 23.2C79.4935 23.888 79.2935 24.72 79.2935 25.696V25.744C80.2375 25.52 80.9815 25.184 81.5255 24.736C82.0695 24.288 82.3415 23.768 82.3415 23.176C82.3415 22.872 82.2535 22.632 82.0775 22.456C81.9175 22.264 81.6935 22.168 81.4055 22.168Z" fill="#030303"/>
<rect x="4" y="18.8776" width="9.79592" height="11.8367" rx="4.89796" fill="#60A5FA"/>
<rect x="18.2041" y="10" width="9.79592" height="20.7143" rx="4.89796" fill="#3366FF"/>
</g>
<defs>
<filter id="filter0_d_300_672" x="0" y="10" width="90.0135" height="29.12" filterUnits="userSpaceOnUse" color-interpolation-filters="sRGB">
<feFlood flood-opacity="0" result="BackgroundImageFix"/>
<feColorMatrix in="SourceAlpha" type="matrix" values="0 0 0 0 0 0 0 0 0 0 0 0 0 0 0 0 0 0 127 0" result="hardAlpha"/>
<feOffset dy="4"/>
<feGaussianBlur stdDeviation="2"/>
<feComposite in2="hardAlpha" operator="out"/>
<feColorMatrix type="matrix" values="0 0 0 0 0 0 0 0 0 0 0 0 0 0 0 0 0 0 0.25 0"/>
<feBlend mode="normal" in2="BackgroundImageFix" result="effect1_dropShadow_300_672"/>
<feBlend mode="normal" in="SourceGraphic" in2="effect1_dropShadow_300_672" result="shape"/>
</filter>
</defs>
</svg>
