<svg width="175" height="191" viewBox="0 0 175 191" fill="none" xmlns="http://www.w3.org/2000/svg">
<g clip-path="url(#clip0_300_636)">
<path d="M106.142 129.059C105.904 129.059 105.825 129.059 105.666 129.138L106.142 129.059Z" fill="#0C0B0B"/>
<path d="M106.142 129.059C105.904 129.059 105.825 129.059 105.666 129.138L106.142 129.059Z" fill="#0C0B0B"/>
<path d="M88.5313 49.7414V34.4789C88.5313 21.5098 100.669 10.9131 115.503 10.9131C122.881 10.9131 129.624 13.5227 134.542 17.7931C139.461 22.0634 142.475 27.9153 142.475 34.3999V49.6623" stroke="#0C0B0B" stroke-width="2" stroke-miterlimit="10"/>
<path d="M142.475 66.269V83.9039C142.475 96.873 130.338 107.47 115.503 107.47C100.669 107.47 88.5313 96.873 88.5313 83.9039V66.269" stroke="#0C0B0B" stroke-width="2" stroke-miterlimit="10"/>
<path d="M99.4787 71.7256C107.058 71.7256 113.203 65.6005 113.203 58.0447C113.203 50.489 107.058 44.3639 99.4787 44.3639C91.8992 44.3639 85.7548 50.489 85.7548 58.0447C85.7548 65.6005 91.8992 71.7256 99.4787 71.7256Z" stroke="#0C0B0B" stroke-width="2" stroke-miterlimit="10"/>
<path d="M131.448 71.7256C139.028 71.7256 145.172 65.6005 145.172 58.0447C145.172 50.489 139.028 44.3639 131.448 44.3639C123.869 44.3639 117.724 50.489 117.724 58.0447C117.724 65.6005 123.869 71.7256 131.448 71.7256Z" stroke="#0C0B0B" stroke-width="2" stroke-miterlimit="10"/>
<path d="M113.123 57.6494H117.883" stroke="#0C0B0B" stroke-width="4" stroke-miterlimit="10"/>
<path d="M126.53 105.335H126.61V130.087" stroke="#0C0B0B" stroke-width="2" stroke-miterlimit="10"/>
<path d="M106.777 129.77V105.967" stroke="#0C0B0B" stroke-width="2" stroke-miterlimit="10"/>
<path d="M99.4787 61.208C101.231 61.208 102.652 59.7918 102.652 58.0448C102.652 56.2978 101.231 54.8816 99.4787 54.8816C97.7262 54.8816 96.3055 56.2978 96.3055 58.0448C96.3055 59.7918 97.7262 61.208 99.4787 61.208Z" fill="#0C0B0B"/>
<path d="M131.449 61.208C133.201 61.208 134.622 59.7918 134.622 58.0448C134.622 56.2978 133.201 54.8816 131.449 54.8816C129.696 54.8816 128.275 56.2978 128.275 58.0448C128.275 59.7918 129.696 61.208 131.449 61.208Z" fill="#0C0B0B"/>
<path d="M86.7063 63.1851H85.1198C83.3745 63.1851 81.7879 63.8968 80.598 65.0039C79.4874 66.1901 78.7734 67.7717 78.7734 69.5115C78.7734 72.991 81.6293 75.8379 85.1198 75.8379H88.2929" stroke="#0C0B0B" stroke-width="2" stroke-miterlimit="10"/>
<path d="M144.22 63.1849H145.807C149.297 63.1849 152.153 66.0318 152.153 69.5113C152.153 71.2511 151.439 72.8327 150.249 74.0189C149.139 75.126 147.552 75.8377 145.807 75.8377H142.634" stroke="#0C0B0B" stroke-width="2" stroke-miterlimit="10"/>
<path d="M88.3731 67.6135V71.4094H85.8346C84.8033 71.4094 83.9307 70.5395 83.9307 69.5114C83.9307 68.9579 84.1686 68.4834 84.486 68.1671C84.8033 67.8508 85.2793 67.6135 85.8346 67.6135H88.3731Z" fill="#0C0B0B"/>
<path d="M142.634 71.4094V67.6135H145.172C146.204 67.6135 147.076 68.4834 147.076 69.5114C147.076 70.065 146.838 70.5395 146.521 70.8558C146.204 71.1721 145.728 71.4094 145.172 71.4094H142.634Z" fill="#0C0B0B"/>
<path d="M115.504 71.093C115.504 71.093 111.537 77.4194 117.883 75.8378" stroke="#0C0B0B" stroke-width="2" stroke-miterlimit="10" stroke-linecap="round"/>
<path d="M108.363 89.3605C108.363 89.3605 114.71 97.1894 123.436 89.3605" stroke="#0C0B0B" stroke-width="2" stroke-miterlimit="10" stroke-linecap="round"/>
<path d="M93.291 41.8334C93.291 41.8334 97.6541 37.484 105.19 41.0426" stroke="#0C0B0B" stroke-width="3" stroke-miterlimit="10" stroke-linecap="round"/>
<path d="M137.716 41.8334C137.716 41.8334 133.353 37.484 125.816 41.0426" stroke="#0C0B0B" stroke-width="3" stroke-miterlimit="10" stroke-linecap="round"/>
<path d="M33.9525 96.0039C33.0005 92.9198 31.6519 91.4173 30.9379 86.9097C29.4307 77.8946 29.986 69.2748 26.2575 69.5912C24.7503 69.7493 24.2743 71.3309 24.3536 72.2008L25.5436 86.4352C25.0676 88.0959 24.195 87.4633 24.195 87.4633C24.195 87.4633 21.1011 74.8104 20.7045 72.5171C20.3079 70.3029 19.1972 69.0376 17.69 69.1958C15.0721 69.433 16.1034 72.5962 16.3414 73.7824L19.1179 89.1239C19.3559 90.6265 17.7693 90.152 17.7693 90.152L11.5817 74.8104C10.8677 73.1498 9.51909 73.5452 9.51909 73.5452C7.05989 74.0987 8.01184 76.313 8.01184 76.313L13.3269 92.6035C13.3269 92.6825 13.3269 92.7616 13.3269 92.8407C13.4062 93.7106 12.2956 94.1851 11.8196 93.3943C10.1537 90.8637 6.90123 86.8306 4.20404 85.249C2.85545 84.4582 1.9035 84.6164 1.3482 85.0118C0.792892 85.4072 0.713563 86.1189 1.11021 86.6725L11.0263 100.986C13.3269 116.169 22.6084 117.988 22.6084 117.988L28.1614 139.656L36.3323 173.819L37.3636 178.168C38.3156 182.359 42.1234 185.364 46.4071 185.364H50.7702C53.8641 185.364 56.0059 182.359 55.054 179.512L35.3011 119.57L34.4284 114.35C36.3323 112.215 37.6016 107.708 38.2362 104.465C38.6329 102.726 38.7915 100.907 38.6329 99.1671C38.3156 94.8177 41.2507 86.9888 41.2507 86.9888C41.0127 85.4863 38.1569 86.7515 38.1569 86.7515C34.9837 87.8587 34.1904 92.9198 33.9525 95.6876C33.8731 96.8738 33.3178 97.9018 32.5245 98.6926C27.7648 103.358 27.3681 108.578 27.3681 108.578" stroke="#0C0B0B" stroke-width="2" stroke-miterlimit="10"/>
<path d="M20.6252 72.5955C20.2285 70.3813 19.5146 68.7206 17.6107 69.2742C15.0721 69.9859 16.0241 72.6746 16.2621 73.8608" stroke="#0C0B0B" stroke-width="2" stroke-miterlimit="10"/>
<path d="M175 189.713V190.504H157.707L154.057 170.339V190.504H79.1708V179.037C79.1708 176.27 79.1708 173.502 79.2501 170.734C77.5842 172.078 75.7597 173.185 73.6178 174.372L57.038 185.443C56.9587 185.522 56.8793 185.522 56.8 185.601C56.086 185.996 55.2927 186.234 54.4201 186.234L50.9723 186.364C50.9723 186.364 54.6581 184.968 55.5307 181.489L49.5811 161.719C58.0693 154.681 71.7932 134.357 98.1305 130.166C99.2411 129.929 100.431 129.691 101.7 129.533C102.89 129.375 104.08 129.217 105.429 129.138L106.301 129.059V129.217L105.825 129.296C105.984 129.296 106.063 129.296 106.222 129.217H106.301C106.46 129.217 106.619 129.217 106.777 129.138H106.857L107.65 129.059V132.064C107.65 132.459 107.809 132.934 108.205 133.329C109.395 134.673 112.092 135.701 115.345 135.939C115.9 136.018 116.455 136.018 117.011 136.018C117.09 136.018 117.169 136.018 117.169 136.018H117.249C120.422 135.939 123.357 135.069 124.864 133.804C125.34 133.408 125.816 132.855 125.816 132.064V129.296L126.61 129.454H126.768C127.006 129.454 127.165 129.533 127.403 129.533V129.296L128.434 129.454C157.548 133.013 175 155.551 175 189.713Z" fill="#2563EB"/>
<path d="M56.9587 185.364L56.7207 185.522C56.8 185.522 56.8794 185.443 56.9587 185.364Z" fill="#0C0B0B"/>
<path d="M93.6877 20.0073C99.796 36.2978 119.787 33.8463 133.352 30.3668C136.605 29.4969 139.937 28.5479 142.872 26.8873C145.807 25.2266 148.266 22.5379 149.218 19.2956C150.249 15.6579 149.059 11.6248 146.997 8.4616C145.093 5.53564 142.316 2.45152 139.381 0.553596C138.112 3.79588 133.59 4.03312 130.496 4.03312C126.133 4.03312 122.167 2.37244 118.121 1.18624C113.996 3.56138e-05 109.553 -0.237205 105.428 0.869916C97.0988 2.84692 90.4352 11.3085 93.6877 20.0073Z" fill="#2563EB"/>
<path d="M88.373 32.8182C88.373 32.8182 77.4256 24.3567 82.1854 14.0763C86.9451 3.79585 102.018 9.33145 102.018 9.33145C102.018 9.33145 108.047 34.9534 88.373 32.8182Z" fill="#2563EB"/>
</g>
<defs>
<clipPath id="clip0_300_636">
<rect width="175" height="190.504" fill="white"/>
</clipPath>
</defs>
</svg>
