<?xml version="1.0" encoding="utf-8"?>
<!-- Designed by Vexels.com - 2020 All Rights Reserved - https://vexels.com/terms-and-conditions/  -->
<svg version="1.1" id="Capa_1" xmlns="http://www.w3.org/2000/svg" xmlns:xlink="http://www.w3.org/1999/xlink" x="0px" y="0px"
	 viewBox="0 0 1200 1200" enable-background="new 0 0 1200 1200" xml:space="preserve">
<g>
	<g>
		<path fill="#42A08E" d="M973.187,777.98c0-31.708-5.417-57.349-14.108-78.078c0,0,0,0-0.024,0
			c-10.546-25.207-25.93-43.168-42.301-55.976c-37.342-29.252-79.715-31.539-80.895-31.612c-0.024,0-0.024,0-0.024,0
			c-5.297-6.115-13.122-10.016-21.813-10.016H654.11v-60.671h135.86c15.89,0,28.891-13.001,28.891-28.891v-64.283h1.541
			l106.945-36.836l-106.945-43.336h-1.541V258.497c0-15.89-13.001-28.891-28.891-28.891H620.38v-0.457v-47.55
			c9.534,4.936,20.368,7.704,31.852,7.704c38.473,0,69.651-31.178,69.651-69.651S690.706,50,652.232,50
			c-15.697,0-30.167,5.2-41.82,13.964c-3.323,2.48-10.401,10.305-22.993-2.022C577.814,52.528,562.863,50,548.418,50
			c-38.473,0-69.651,31.178-69.651,69.651s31.178,69.651,69.651,69.651c10.882,0,21.187-2.504,30.36-6.958v46.803v0.457H410.054
			c-15.89,0-28.891,13.001-28.891,28.891V368.86l-105.5,42.759l105.5,36.33v64.788c0,15.89,13.001,28.891,28.891,28.891h134.849
			v60.671h-158.9c-8.692,0-16.516,3.9-21.837,10.016c0,0-43.023,1.926-80.919,31.587c-16.347,12.808-31.756,30.793-42.301,56
			c-8.716,20.729-14.133,46.37-14.133,78.078c-27.47,7.391-47.67,32.454-47.67,62.284c0,18.49,7.801,35.175,20.272,46.948
			l2.961,2.624l18.129-19.766l-2.961-2.504c-7.175-6.886-11.653-16.588-11.653-27.302c0-20.874,16.901-37.799,37.775-37.799
			c20.874,0,37.775,16.925,37.775,37.799c0,12.616-6.187,23.787-15.697,30.649l-1.854,1.252l13.747,22.92l2.648-1.709
			c16.853-11.628,27.904-31.082,27.904-53.111c0-19.574-8.691-37.077-22.439-48.898c0-27.519,3.563-48.705,9.125-64.981
			c6.524-19.261,15.818-31.684,25.231-39.725c18.274-15.577,37.005-14.59,37.005-14.59v213.36c0,15.89,13.001,28.891,28.891,28.891
			v41.025v57.782v49.115l-40.472,86.24L498.966,1150l-34.091-87.756v-49.115v-57.782v-41.025h265.051v41.025v57.782v49.115
			l-40.448,86.24L842.913,1150l-34.092-87.756v-49.115v-57.782v-41.025h5.201c15.89,0,28.891-13.001,28.891-28.891v-213.36
			c0,0,18.707-0.987,36.98,14.59c9.414,8.017,18.707,20.464,25.231,39.725c5.562,16.275,9.125,37.462,9.125,64.981
			c-13.723,11.821-22.414,29.324-22.414,48.898c0,22.029,11.027,41.483,27.904,53.111l2.625,1.709l13.747-22.92l-1.854-1.252
			c-9.51-6.862-15.698-18.033-15.698-30.649c0-20.874,16.925-37.799,37.775-37.799c20.874,0,37.799,16.925,37.799,37.799
			c0,10.714-4.478,20.416-11.677,27.302l-2.961,2.504l18.129,19.766l2.961-2.624c12.495-11.773,20.272-28.458,20.272-46.948
			C1020.857,810.435,1000.658,785.372,973.187,777.98z M548.418,158.654c-21.548,0-39.003-17.455-39.003-39.003
			c0-21.524,17.455-39.003,39.003-39.003s39.003,17.479,39.003,39.003C587.42,141.199,569.965,158.654,548.418,158.654z
			 M652.232,80.648c21.548,0,39.003,17.479,39.003,39.003c0,21.548-17.455,39.003-39.003,39.003s-39.003-17.455-39.003-39.003
			C613.229,98.128,630.684,80.648,652.232,80.648z"/>
		
			<ellipse transform="matrix(0.9239 -0.3827 0.3827 0.9239 -84.1256 400.3099)" fill="#42A08E" cx="964.183" cy="411.619" rx="36.836" ry="36.836"/>
		
			<ellipse transform="matrix(0.9239 -0.3827 0.3827 0.9239 -139.34 122.7274)" fill="#42A08E" cx="238.827" cy="411.619" rx="36.836" ry="36.836"/>
	</g>
	<g>
		<path fill="#A6D5CB" d="M973.187,777.98c-5.369-1.469-11.027-2.239-16.853-2.239c-16.083,0-30.793,5.875-42.085,15.625
			c0-27.519-3.563-48.705-9.125-64.981h0.024c19.574-27.495,52.702-26.532,53.906-26.483c0.024,0,0.024,0,0.024,0
			C967.77,720.632,973.187,746.273,973.187,777.98z"/>
		<polygon fill="#A6D5CB" points="927.347,411.619 820.402,448.455 818.861,448.455 818.861,368.282 820.402,368.282 		"/>
		<path fill="#A6D5CB" d="M835.859,612.315c1.18,0.072,43.553,2.359,80.895,31.612c0,0-34.356,12.712-36.86,42.735
			c-18.274-15.577-36.98-14.59-36.98-14.59V631.19C842.913,623.992,840.241,617.395,835.859,612.315z"/>
		<path fill="#A6D5CB" d="M808.822,1013.129v49.115c0,0-11.292,14.445-39.436,14.445c-28.169,0-39.46-14.445-39.46-14.445v-49.115
			C729.925,1013.129,787.153,1034.797,808.822,1013.129z"/>
		<path fill="#A6D5CB" d="M808.822,914.322v41.025c-24.268,24.268-78.896,0-78.896,0v-41.025H808.822z"/>
		<rect x="656.711" y="772.178" fill="#A6D5CB" width="104.874" height="50.27"/>
		<rect x="544.903" y="541.628" fill="#A6D5CB" width="109.208" height="60.671"/>
		<rect x="437.428" y="772.178" fill="#A6D5CB" width="115.588" height="50.27"/>
		<path fill="#A6D5CB" d="M464.874,1013.129v49.115c0,0-11.267,14.445-39.436,14.445s-39.436-14.445-39.436-14.445v-49.115
			C386.002,1013.129,443.206,1034.797,464.874,1013.129z"/>
		<path fill="#A6D5CB" d="M464.874,914.322v41.025c-24.268,24.268-78.872,0-78.872,0v-41.025H464.874z"/>
		<polygon fill="#A6D5CB" points="381.163,368.86 381.163,447.949 275.663,411.619 		"/>
		<path fill="#A6D5CB" d="M364.165,612.315c-4.382,5.08-7.054,11.677-7.054,18.875v40.881c0,0-18.731-0.987-37.005,14.59
			c-2.48-30.023-36.836-42.735-36.836-42.735l-0.024-0.024C321.142,614.241,364.165,612.315,364.165,612.315z"/>
		<path fill="#A6D5CB" d="M294.851,726.386h0.024c-5.562,16.275-9.125,37.462-9.125,64.981
			c-11.292-9.751-26.002-15.625-42.085-15.625c-5.826,0-11.484,0.77-16.853,2.239c0-31.708,5.417-57.349,14.133-78.078
			C240.945,699.903,274.916,698.386,294.851,726.386z"/>
	</g>
	<g>
		
			<ellipse transform="matrix(0.9239 -0.3827 0.3827 0.9239 -84.1256 400.3089)" fill="#FFE575" cx="964.183" cy="411.619" rx="36.836" ry="36.836"/>
		<rect x="561.442" y="687.239" fill="#FFE575" width="200.143" height="43.336"/>
		<rect x="553.016" y="772.178" fill="#FFE575" width="103.695" height="50.27"/>
		<path fill="#FFE575" d="M578.777,229.148v0.457h41.603v-0.457v-47.55c9.534,4.936,20.368,7.704,31.852,7.704
			c38.473,0,69.651-31.178,69.651-69.651S690.706,50,652.232,50c-15.697,0-30.167,5.2-41.82,13.964
			c-3.323,2.48-10.401,10.305-22.993-2.022C577.814,52.528,562.863,50,548.418,50c-38.473,0-69.651,31.178-69.651,69.651
			s31.178,69.651,69.651,69.651c10.882,0,21.187-2.504,30.36-6.958V229.148z M652.232,80.648c21.548,0,39.003,17.479,39.003,39.003
			c0,21.548-17.455,39.003-39.003,39.003s-39.003-17.455-39.003-39.003C613.229,98.128,630.684,80.648,652.232,80.648z
			 M548.418,158.654c-21.548,0-39.003-17.455-39.003-39.003c0-21.524,17.455-39.003,39.003-39.003s39.003,17.479,39.003,39.003
			C587.42,141.199,569.965,158.654,548.418,158.654z"/>
		
			<ellipse transform="matrix(0.9239 -0.3827 0.3827 0.9239 -234.6907 237.9425)" fill="#FFE575" cx="480.764" cy="708.907" rx="36.836" ry="36.836"/>
		
			<ellipse transform="matrix(0.9239 -0.3827 0.3827 0.9239 -139.34 122.7274)" fill="#FFE575" cx="238.827" cy="411.619" rx="36.836" ry="36.836"/>
	</g>
	<g>
		<circle fill="#592424" cx="740.88" cy="411.619" r="36.836"/>
		<circle fill="#592424" cx="462.13" cy="411.619" r="36.836"/>
		<g>
			<path fill="#592424" d="M639.376,448.334h-77.043c-3.99,0-7.223-3.234-7.223-7.223s3.233-7.223,7.223-7.223h77.043
				c3.99,0,7.223,3.234,7.223,7.223S643.366,448.334,639.376,448.334z"/>
		</g>
	</g>
</g>
</svg>
