<svg width="24" height="24" viewBox="0 0 24 24" fill="none" xmlns="http://www.w3.org/2000/svg">
<path d="M11.123 20.75C5.95135 20.75 1.75058 16.38 1.75058 11C1.75058 5.62 5.95135 1.25 11.123 1.25C16.2947 1.25 20.4955 5.62 20.4955 11C20.4955 16.38 16.2947 20.75 11.123 20.75ZM11.123 2.75C6.74921 2.75 3.19249 6.45 3.19249 11C3.19249 15.55 6.74921 19.25 11.123 19.25C15.4968 19.25 19.0535 15.55 19.0535 11C19.0535 6.45 15.4968 2.75 11.123 2.75Z" fill="#4B5563"/>
<path d="M19.9283 22.79C19.8514 22.79 19.7745 22.78 19.7072 22.77C19.2554 22.71 18.4383 22.39 17.9769 20.96C17.7366 20.21 17.8231 19.46 18.2172 18.89C18.6114 18.32 19.2746 18 20.034 18C21.0145 18 21.7836 18.39 22.1296 19.08C22.4757 19.77 22.3796 20.65 21.8316 21.5C21.1491 22.57 20.4089 22.79 19.9283 22.79ZM19.3515 20.49C19.515 21.01 19.7457 21.27 19.8995 21.29C20.0533 21.31 20.3417 21.12 20.6396 20.67C20.9184 20.24 20.9376 19.93 20.8704 19.79C20.8031 19.65 20.5339 19.5 20.034 19.5C19.736 19.5 19.515 19.6 19.39 19.77C19.2746 19.94 19.2554 20.2 19.3515 20.49Z" fill="#4B5563"/>
</svg>
