<svg width="43" height="43" viewBox="0 0 43 43" fill="none" xmlns="http://www.w3.org/2000/svg">
<path d="M30.9844 2.76633C30.9105 2.76633 30.8396 2.77637 30.7658 2.7778C31.3294 2.11161 31.8263 1.39173 32.2493 0.628517C32.2493 0.628517 26.5539 5.0224 21.4993 0C16.4446 5.0224 10.7493 0.628517 10.7493 0.628517C11.1721 1.39154 11.6685 2.11139 12.2313 2.7778C12.1582 2.77637 12.0873 2.76633 12.0135 2.76633C5.39005 2.76633 0 8.15638 0 14.7812C0 18.1603 1.40682 21.2126 3.6593 23.397C3.97248 27.0635 5.2718 32.9058 10.1114 36.6174C9.57825 36.7672 9.13965 37.1842 9.13965 37.8773C9.13965 39.6467 10.573 42.2826 10.573 42.2826C10.573 42.2826 11.367 40.8199 11.7734 39.3421C12.1797 41.184 12.9688 43 12.9688 43C12.9688 43 13.7586 41.184 14.1656 39.3428C14.5713 40.8206 15.3646 42.2833 15.3646 42.2833C15.3646 42.2833 15.8871 41.3208 16.3006 40.1706C17.9539 40.8339 19.7186 41.1757 21.5 41.1775C23.3203 41.1775 25.0683 40.8199 26.6987 40.1706C27.1129 41.3208 27.6339 42.2833 27.6339 42.2833C27.6339 42.2833 28.4287 40.8206 28.8351 39.3428C29.2414 41.184 30.0298 43 30.0298 43C30.0298 43 30.8195 41.184 31.2266 39.3428C31.6329 40.8206 32.4263 42.2833 32.4263 42.2833C32.4263 42.2833 33.8596 39.6467 33.8596 37.878C33.8596 37.185 33.4217 36.7679 32.8885 36.6181C37.7275 32.9058 39.0268 27.0642 39.34 23.3977C41.5925 21.2126 43 18.1603 43 14.7812C43 8.15638 37.61 2.76633 30.9844 2.76633ZM23.1197 5.94188C23.8643 4.45838 24.8597 3.35902 24.8597 3.35902C24.8597 3.35902 24.6526 4.66837 23.9109 6.15115C23.4374 7.07897 22.8537 7.94621 22.1722 8.73402C22.1722 8.73402 22.3779 7.42467 23.1197 5.94188ZM21.5 1.34375C21.5 1.34375 21.8361 3.14975 21.8361 5.375C21.8361 7.60025 21.5 9.40625 21.5 9.40625C21.5 9.40625 21.1639 7.60025 21.1639 5.375C21.1639 3.14975 21.5 1.34375 21.5 1.34375ZM14.9912 30.7837L16.1013 29.5281L17.2122 30.7837L18.3223 32.0393L17.2122 33.2949L16.1013 34.5512L14.9912 33.2949L13.8804 32.0393L14.9912 30.7837ZM13.4024 31.4982L12.2915 30.2426L11.1814 28.987L13.1695 26.7367C13.3092 26.7231 13.4454 26.6987 13.5837 26.6808L15.6226 28.987L14.5118 30.2426L13.4024 31.4982ZM16.5801 28.987L18.8003 26.4751L21.022 28.987L19.9111 30.2426L18.8003 31.4982L17.6902 30.2426L16.5801 28.987ZM17.6902 33.8367L18.8003 32.5804L19.9111 33.8367L21.022 35.0923L18.8003 37.6042L16.5801 35.0923L17.6902 33.8367ZM20.3892 33.2949L19.2783 32.0393L20.3892 30.7837L21.5 29.5281L22.6101 30.7837L23.7209 32.0393L22.6101 33.2949L21.5 34.5512L20.3892 33.2949ZM21.978 28.987L24.199 26.4751L26.4192 28.987L25.3091 30.2426L24.199 31.4982L23.0888 30.2426L21.978 28.987ZM23.0888 33.8367L24.199 32.5804L25.3091 33.8367L26.4192 35.0923L24.199 37.6042L21.978 35.0923L23.0888 33.8367ZM25.7871 33.2949L24.677 32.0393L25.7871 30.7837L26.8972 29.5281L28.008 30.7837L29.1189 32.0393L28.008 33.2949L26.8972 34.5512L25.7871 33.2949ZM28.4861 30.2426L27.3759 28.987L29.4149 26.6808C29.5525 26.6987 29.6886 26.7238 29.8284 26.7367L31.8171 28.987L30.707 30.2426L29.5962 31.4982L28.4861 30.2426ZM26.8972 28.4459L24.1982 25.3929L21.5 28.4459L18.7996 25.3929L16.1006 28.4459L14.4265 26.5518C16.0679 26.2127 17.6185 25.529 18.9759 24.5458C19.4826 25.5356 20.1867 26.411 21.0449 27.1179L21.5 27.4913L21.9544 27.1179C22.8127 26.4111 23.5169 25.5357 24.0234 24.5458C25.381 25.5286 26.9316 26.2123 28.5728 26.5518L26.8972 28.4459ZM21.5 25.6022C20.2236 24.3459 19.5012 22.6373 19.5012 20.8285C19.5012 19.0196 20.2236 17.3111 21.5 16.0548C22.7764 17.3111 23.4973 19.0196 23.4973 20.8285C23.4973 22.6373 22.7764 24.3459 21.5 25.6022ZM19.8789 5.94188C20.6206 7.42467 20.8278 8.73402 20.8278 8.73402C20.8278 8.73402 19.8323 7.63465 19.0877 6.15115C18.3459 4.66837 18.1403 3.35902 18.1403 3.35902C18.1403 3.35902 19.1357 4.45838 19.8789 5.94188ZM2.6875 14.7812C2.6875 9.58757 6.90007 5.375 12.0938 5.375C17.0875 5.375 21.1624 9.27223 21.4699 14.1893L21.0449 14.5376C20.1129 15.2993 19.3622 16.259 18.8473 17.3471C18.3323 18.4351 18.0661 19.6241 18.0679 20.8278C18.0679 21.2119 18.1044 21.5903 18.1567 21.9651C16.4635 23.4019 14.3144 24.1897 12.0938 24.1875C6.90007 24.1875 2.6875 19.9749 2.6875 14.7812ZM10.8109 26.7352C11.211 26.7758 11.6128 26.7962 12.0149 26.7962C12.0665 26.7962 12.1174 26.789 12.1697 26.7883L10.7894 28.3492C10.7818 27.8111 10.789 27.2729 10.8109 26.7352ZM10.8381 29.6807L11.8135 30.7837L12.9236 32.0393L11.8135 33.2949L11.4143 33.7464C11.115 32.4086 10.9224 31.0491 10.8381 29.6807ZM12.4012 35.9817C12.2152 35.8068 12.0336 35.6274 11.8565 35.4435C11.7739 35.1618 11.6956 34.8789 11.6215 34.5949L12.2923 33.836L13.4031 32.5797L14.5132 33.836L15.6241 35.0916L14.2144 36.6862C13.8625 35.9179 13.0484 35.6821 12.4012 35.9817ZM26.2006 37.878C26.2006 38.1618 26.2415 38.4699 26.3031 38.7846C24.7981 39.4038 23.1827 39.7449 21.5007 39.7449C19.8187 39.7449 18.2026 39.4038 16.6976 38.7846C16.76 38.4707 16.7994 38.1625 16.7994 37.878C16.7994 36.9542 16.0218 36.5263 15.2765 36.5679L16.1021 35.6334L18.801 38.6864L21.5 35.6334L24.199 38.6864L26.8979 35.6334L27.7243 36.5679C26.9789 36.5263 26.2006 36.9535 26.2006 37.878ZM31.1427 35.4435C30.965 35.6277 30.783 35.8075 30.5981 35.9817C29.9516 35.6821 29.1368 35.9179 28.7856 36.6862L27.3759 35.0916L28.4861 33.836L29.5969 32.5797L30.7077 33.836L31.3785 34.5949C31.299 34.8988 31.2201 35.1812 31.1427 35.4435ZM31.5849 33.7464L31.185 33.2949L30.0742 32.0393L31.185 30.7837L32.1604 29.6807C32.0615 31.2646 31.8386 32.6191 31.5849 33.7464ZM30.8296 26.7883C30.8826 26.789 30.9335 26.7962 30.9851 26.7962C31.3914 26.7962 31.7928 26.7754 32.1891 26.7352C32.2113 27.2942 32.2185 27.8325 32.2106 28.3499L30.8296 26.7883ZM30.9062 24.1875C28.6853 24.1898 26.536 23.4021 24.8425 21.9651C24.8948 21.591 24.9307 21.2119 24.9307 20.8278C24.9307 18.3825 23.8456 16.0899 21.9544 14.5376L21.5294 14.1893C21.8368 9.27223 25.9118 5.375 30.9062 5.375C36.0992 5.375 40.3125 9.58757 40.3125 14.7812C40.3125 19.9749 36.0992 24.1875 30.9062 24.1875Z" fill="#E59765"/>
</svg>
